# xmcd
#
# Track frame offsets: 
#        150
#        12890
#        26660
#        41500
#        53240
#        66657
#        81470
#        95120
#        105460
#        127367
#        143177
#        161512
#        172817
#        185632
#        196042
#        211955
#        225765
#        237810
#        249337
#        260975
#
# Disc length: 3655 seconds
#
# Revision: 1
# Processed by: cddbd v1.5.2PL0 Copyright (c) Steve Scherf et al.
# Submitted via: ExactAudioCopy v0.95a5
#
DISCID=1a0e4514
DTITLE=B. B. King - Why I Sing The Blues
DYEAR=1997
DGENRE=Blues
TTITLE0=Why I Sing The Blues
TTITLE1=Bad Luck
TTITLE2=Trouble In Mind
TTITLE3=Dark Is The Night - Part 1
TTITLE4=Blues At Sunrise
TTITLE5=Dust My Broom
TTITLE6=I Want To Get Married
TTITLE7=Blues For Me
TTITLE8=Night Life
TTITLE9=Blind Love
TTITLE10=Don't Answer The Door
TTITLE11=Mean Ole Frisco
TTITLE12=Going Down Slow
TTITLE13=Talkin' The Blues
TTITLE14=It's My Own Fault
TTITLE15=How Blue Can You Get
TTITLE16=Help The Poor
TTITLE17=She's A Mean Woman
TTITLE18=Hard Working Woman
TTITLE19=Questionaire Blues
EXTD=
EXTT0=
EXTT1=
EXTT2=
EXTT3=
EXTT4=
EXTT5=
EXTT6=
EXTT7=
EXTT8=
EXTT9=
EXTT10=
EXTT11=
EXTT12=
EXTT13=
EXTT14=
EXTT15=
EXTT16=
EXTT17=
EXTT18=
EXTT19=
PLAYORDER=
